<svg width="276" height="218" viewBox="0 0 276 218" fill="none" xmlns="http://www.w3.org/2000/svg">
<path d="M176.984 81.1212C163.539 75.1581 136.35 -0.277616 127.088 8.96547C117.826 18.2086 104.082 81.1212 95.418 81.1212C86.7537 81.1212 3.69323 58.7589 8.17489 66.5112C12.6566 74.2634 78.0889 124.355 77.7901 135.983C77.4913 147.612 49.705 209.63 58.3695 209.63C67.0341 209.63 124.698 155.96 136.35 156.557C148.003 157.153 219.709 216.488 225.386 209.63C231.063 202.772 193.716 144.332 197.301 135.983C200.886 127.635 277.971 66.5112 266.916 66.5112C255.862 66.5112 190.429 87.0844 176.984 81.1212Z" stroke="#4A3AFF" stroke-width="15" stroke-linecap="round"/>
</svg>
